PathFileType	4	(X/Y/Z)	C:/Users/opensim2020/Desktop/walking_exp_matlab/subject01_walking12_straight_03.trc																																																																																																																																		
DataRate	CameraRate	NumFrames	NumMarkers	Units	OrigDataRate	OrigDataStartFrame	OrigNumFrames																																																																																																																														
100	100	5	44	mm	100	1863	172																																																																																																																														
Frame#	Time	LFHD			RFHD			LBHD			RBHD			C7			T10			CLAV			STRN			RBAK			LSHO			LUPA			LELB			LFRM			LWRA			LWRB			LFIN			RSHO			RUPA			RELB			RFRM			RWRA			RWRB			RFIN			LASI			RASI			LPSI			RPSI			LTHI			LKNE			LTIB			LANK			LHEE			LTOE			RTHI			RKNE			RTIB			RANK			RHEE			RTOE			*39			*40			*41			*42			*43		
		X1	Y1	Z1	X2	Y2	Z2	X3	Y3	Z3	X4	Y4	Z4	X5	Y5	Z5	X6	Y6	Z6	X7	Y7	Z7	X8	Y8	Z8	X9	Y9	Z9	X10	Y10	Z10	X11	Y11	Z11	X12	Y12	Z12	X13	Y13	Z13	X14	Y14	Z14	X15	Y15	Z15	X16	Y16	Z16	X17	Y17	Z17	X18	Y18	Z18	X19	Y19	Z19	X20	Y20	Z20	X21	Y21	Z21	X22	Y22	Z22	X23	Y23	Z23	X24	Y24	Z24	X25	Y25	Z25	X26	Y26	Z26	X27	Y27	Z27	X28	Y28	Z28	X29	Y29	Z29	X30	Y30	Z30	X31	Y31	Z31	X32	Y32	Z32	X33	Y33	Z33	X34	Y34	Z34	X35	Y35	Z35	X36	Y36	Z36	X37	Y37	Z37	X38	Y38	Z38	X39	Y39	Z39	X40	Y40	Z40	X41	Y41	Z41	X42	Y42	Z42	X43	Y43	Z43	X44	Y44	Z44
																																																																																																																																					
87	0.86	119.47369	1664.01648	-1069.55688	134.15012	1664.88013	-956.21289	2.34054	1622.49255	-1062.38831	14.7616	1622.16699	-942.20923	-39.13697	1423.47681	-1030.5354	-66.50499	1128.14148	-1030.72803	105.66352	1359.01392	-1024.0321	154.2117	1206.82556	-1034.81213	-90.2497	1221.95715	-964.15759	49.1026	1392.18762	-1186.45325	37.52538	1215.45276	-1282.94958	49.21381	1063.98022	-1304.94861	144.89423	996.0434	-1329.85168	276.13486	954.60309	-1314.9823	236.27797	915.42517	-1336.13794	314.4404	892.41809	-1352.57764	34.44476	1377.5365	-874.06036	-48.64663	1180.20776	-788.39471	-65.14337	1058.97351	-791.43597	-72.53459	940.50397	-762.93054	-32.30037	804.17975	-783.81934	-73.72067	818.83368	-745.02216	-63.58186	732.56226	-748.99353	105.58872	923.29755	-1144.39722	123.05157	933.66516	-930.71259	-75.5056	934.88971	-1079.75684	-63.30507	939.98108	-934.34656	49.13869	585.84937	-1201.68982	19.30295	453.81638	-1196.86145	-131.59094	339.64938	-1202.00183	-289.75809	185.0397	-1157.07996	-327.84	206.66003	-1100.80212	-253.72861	40.59295	-1140.86365	139.24687	605.04791	-873.50378	185.48303	454.78442	-907.0257	158.65877	278.90372	-901.89734	159.89426	75.22907	-955.01208	111.53673	36.06962	-1004.50769	301.24884	39.88411	-962.51648	123.43184	1699.7124	-978.20374	1973.08459	1023.51868	-3101.9939	2012.44812	1021.94794	-3140.84644	NaN	NaN	NaN	NaN	NaN	NaN
88	0.87	129.77534	1665.28235	-1067.46704	144.43571	1665.66614	-954.0188	12.65846	1623.63074	-1060.33972	25.153	1622.81445	-940.26813	-28.83545	1424.646	-1028.84167	-55.81834	1129.21399	-1029.18152	116.23027	1360.13428	-1023.01483	164.73672	1207.93018	-1034.25195	-79.25967	1223.09277	-961.98572	58.95875	1393.42761	-1185.18762	46.16749	1216.69006	-1281.7915	55.67862	1064.72217	-1302.60608	150.02962	994.88989	-1327.72168	280.76828	951.0188	-1313.09399	239.95795	912.66351	-1334.00415	317.70847	887.7525	-1350.15356	45.70667	1378.64673	-872.69128	-35.8902	1180.70422	-786.52509	-51.41301	1059.37244	-789.50861	-57.23673	940.61621	-761.30707	-15.07475	805.07111	-782.26892	-56.94275	818.8667	-743.82318	-45.51587	732.75366	-748.01227	115.94929	924.3736	-1143.05078	133.37173	934.88568	-929.23468	-65.08846	935.62146	-1078.42639	-52.87022	941.39087	-933.18219	67.18266	585.80194	-1201.81909	39.70363	453.64957	-1197.49646	-112.56913	343.17358	-1203.12048	-272.95984	192.17148	-1157.52393	-310.03067	216.18416	-1102.15247	-244.78407	45.38713	-1140.29089	144.90585	605.28461	-872.83563	190.69258	454.54565	-905.52582	161.25119	278.88104	-901.17279	160.1165	75.1383	-954.90027	111.74603	36.19058	-1004.30341	301.43927	39.52647	-962.38159	133.66798	1700.68567	-975.86255	1973.12537	1023.51764	-3101.9917	2012.51501	1021.9975	-3140.76099	NaN	NaN	NaN	NaN	NaN	NaN
89	0.88	140.07402	1666.62366	-1065.46313	154.80014	1666.62	-952.18866	22.98439	1624.80322	-1058.62134	35.63685	1623.60999	-938.45386	-18.28256	1425.73816	-1027.24622	-45.40441	1130.39783	-1027.54578	126.73277	1361.26416	-1022.12885	175.0741	1209.0603	-1033.68738	-68.41628	1224.30603	-959.78796	68.78525	1394.63965	-1184.11572	54.48207	1217.89282	-1280.65479	62.00985	1065.36621	-1300.34607	154.90953	993.42688	-1325.55701	285.02951	947.17212	-1311.15442	243.18427	909.53418	-1331.89832	320.51486	882.82562	-1347.88477	57.10278	1379.78015	-871.46252	-23.19301	1181.34033	-784.5144	-37.78571	1059.65686	-787.73846	-41.79424	940.6311	-759.70996	1.88248	805.48944	-781.91846	-39.3013	818.87805	-742.43512	-26.80386	733.11896	-746.91302	126.15002	925.35223	-1141.896	143.50444	935.81274	-927.8526	-54.92356	936.1427	-1077.15161	-42.76992	942.57294	-931.98096	84.57834	586.27777	-1201.91589	59.88868	453.98578	-1198.15735	-92.98361	346.52267	-1204.48743	-255.54274	199.28175	-1157.48547	-291.52328	224.93381	-1102.94153	-233.1666	50.40016	-1140.54712	150.65184	605.32056	-871.9245	195.25366	454.1015	-904.52393	163.72195	278.77734	-900.1792	160.31229	75.06392	-954.70203	111.76226	36.40874	-1004.16437	301.6615	39.31151	-962.21112	144.07918	1701.80225	-973.46521	1973.20337	1023.52191	-3101.80737	2012.54211	1021.95953	-3140.56226	NaN	NaN	NaN	NaN	NaN	NaN
90	0.89	150.32307	1667.93005	-1063.85449	165.19029	1667.69214	-950.48041	33.35128	1626.01636	-1056.85657	46.04782	1624.45593	-936.77228	-7.79495	1426.96436	-1025.7063	-34.92557	1131.58325	-1025.84521	137.2002	1362.41333	-1021.38623	185.41379	1210.1803	-1033.27161	-57.77124	1225.59741	-957.61707	78.49861	1395.85449	-1183.11902	62.42303	1219.12	-1279.60449	68.33051	1065.94128	-1298.12073	159.56419	991.85858	-1323.46228	288.95844	943.07483	-1309.16614	246.35428	906.50031	-1329.81018	322.88745	877.77911	-1345.64661	68.45636	1380.80237	-870.2998	-10.34374	1182.13513	-782.45734	-24.09332	1059.91382	-785.94489	-26.17073	940.61475	-758.04144	19.68133	806.49506	-780.62982	-21.57205	818.89655	-741.12299	-7.58969	733.37878	-745.84833	136.24078	926.28894	-1140.93335	153.48314	936.61664	-926.52295	-44.94043	936.45404	-1075.86829	-32.87568	943.86554	-930.68103	101.56699	587.36304	-1202.02563	79.78396	454.77286	-1198.49133	-72.90701	349.091	-1205.49414	-237.58749	206.03001	-1157.06641	-273.12955	231.86885	-1102.25708	-218.55103	55.74791	-1141.95593	156.5696	605.54034	-870.88507	199.51242	453.51663	-903.58978	166.21301	278.53183	-899.34039	160.54457	75.07841	-954.5838	111.2606	36.73468	-1004.2984	301.74216	39.11124	-962.08148	154.2809	1702.69653	-971.92712	1973.14148	1023.45959	-3101.89185	2012.54407	1022.02863	-3140.67603	NaN	NaN	NaN	NaN	NaN	NaN
91	0.9	160.67076	1669.15393	-1062.33936	175.60295	1668.6499	-949.02533	43.61782	1627.18042	-1055.4209	56.38778	1625.36975	-935.31903	2.60379	1428.10205	-1024.18665	-24.59609	1132.71021	-1024.15552	147.57645	1363.49133	-1020.69849	195.54784	1211.23145	-1032.77637	-47.30906	1226.94739	-955.54749	88.16405	1397.0293	-1182.17029	70.03188	1220.26184	-1278.4115	74.62704	1066.57141	-1296.06482	164.02005	990.25903	-1321.36414	292.44641	938.80402	-1307.13586	248.8793	902.95569	-1327.39075	324.77069	872.37323	-1343.07959	79.82716	1381.88306	-869.27704	2.54118	1182.81689	-780.57715	-10.38842	1060.13953	-784.11469	-10.26737	940.64844	-756.36023	38.03179	807.58331	-779.63495	-3.36618	819.00385	-739.77075	12.32103	733.90576	-744.60693	146.12854	927.21503	-1139.97925	163.27492	937.28333	-925.28394	-35.14876	936.69946	-1074.6521	-23.12822	944.76459	-929.5813	117.99948	588.79553	-1202.13611	99.50349	456.13333	-1198.79272	-52.56134	351.5369	-1206.23291	-219.61267	212.04549	-1156.13647	-254.95293	237.14389	-1100.38586	-201.63864	61.24029	-1144.10706	162.58292	605.86963	-869.94287	203.35242	453.07303	-902.82043	168.41695	278.4722	-898.60962	160.59148	75.09531	-954.45117	111.50212	36.74571	-1004.00519	301.84348	38.92046	-961.89075	164.25847	1703.63403	-970.56195	1973.1311	1023.60095	-3101.88159	2012.5625	1022.02301	-3140.73779	NaN	NaN	NaN	NaN	NaN	NaN
